# xmcd
#
# Track frame offsets:
#	150
#	21682
#	44657
#	61839
#	77378
#	99643
#	114225
#	130202
#	147299
#	173643
#	194533
#	217566
#	234691
#
# Disc length: 3354 seconds
#
# Revision: 1
# Processed by: cddbd v1.5.1PL0 Copyright (c) Steve Scherf et al.
# Submitted via: EasyCDDAExtractor 5.0.6
#
DISCID=b00d180d
DTITLE=許\景淳 - 愛河月光
DYEAR=2005
DGENRE=pop
TTITLE0=戀戀風塵
TTITLE1=愛河月光
TTITLE2=DA LA DI LA歡樂時光
TTITLE3=園丁與森林
TTITLE4=我的圓舞曲
TTITLE5=愛的吉他
TTITLE6=我還有一隻腳
TTITLE7=爸媽謝謝你
TTITLE8=油桐花
TTITLE9=鄒族之歌
TTITLE10=愛河月光KALA
TTITLE11=DA LA DI LA歡樂時光KALA
TTITLE12=爸媽謝謝你KALA
EXTD=
EXTT0=
EXTT1=
EXTT2=
EXTT3=
EXTT4=
EXTT5=
EXTT6=
EXTT7=
EXTT8=
EXTT9=
EXTT10=
EXTT11=
EXTT12=
PLAYORDER=
